<svg width="1200" height="860" viewBox="0 0 1200 860" fill="none" xmlns="http://www.w3.org/2000/svg">
  <defs>
    <linearGradient id="wall" x1="0" y1="0" x2="1200" y2="860"><stop stop-color="#f8fafc"/><stop offset="1" stop-color="#dbeafe"/></linearGradient>
    <linearGradient id="holo" x1="330" y1="210" x2="830" y2="570"><stop stop-color="#22d3ee"/><stop offset=".5" stop-color="#a78bfa"/><stop offset="1" stop-color="#34d399"/></linearGradient>
  </defs>
  <rect width="1200" height="860" rx="48" fill="url(#wall)"/>
  <rect x="80" y="112" width="1040" height="518" rx="40" fill="#fff"/>
  <rect x="134" y="164" width="246" height="330" rx="22" fill="#f1f5f9"/>
  <rect x="428" y="164" width="344" height="330" rx="22" fill="#ecfeff"/>
  <rect x="820" y="164" width="246" height="330" rx="22" fill="#f8fafc"/>
  <rect x="80" y="626" width="1040" height="114" rx="28" fill="#0f172a"/>
  <rect x="138" y="654" width="184" height="24" rx="12" fill="#38bdf8"/>
  <rect x="138" y="694" width="294" height="18" rx="9" fill="#94a3b8"/>
  <circle cx="598" cy="332" r="170" fill="url(#holo)" fill-opacity=".16"/>
  <path d="M468 312C553 254 649 250 732 300" stroke="#38bdf8" stroke-width="6" stroke-dasharray="8 20" stroke-linecap="round"/>
  <path d="M452 408C554 346 661 347 760 410" stroke="#a78bfa" stroke-width="6" stroke-dasharray="8 20" stroke-linecap="round"/>
  <path d="M600 180C667 244 712 327 738 432" stroke="#34d399" stroke-width="6" stroke-dasharray="8 20" stroke-linecap="round"/>
  <path d="M596 320L456 194M606 316L746 190M613 334L752 470M590 340L448 476" stroke="#111827" stroke-width="17" stroke-linecap="round"/>
  <path d="M459 197L593 317M744 192L609 318M750 468L613 338M451 474L590 339" stroke="url(#holo)" stroke-width="5" stroke-linecap="round"/>
  <circle cx="600" cy="328" r="52" fill="#020617" stroke="#475569" stroke-width="8"/>
  <path d="M600 382V520" stroke="#111827" stroke-width="18" stroke-linecap="round"/>
  <rect x="842" y="654" width="208" height="58" rx="18" fill="#ffffff" fill-opacity=".12"/>
</svg>
