<svg width="980" height="980" viewBox="0 0 980 980" fill="none" xmlns="http://www.w3.org/2000/svg">
  <defs>
    <linearGradient id="case" x1="280" y1="250" x2="720" y2="720"><stop stop-color="#1f2937"/><stop offset="1" stop-color="#020617"/></linearGradient>
    <linearGradient id="beam" x1="320" y1="0" x2="770" y2="940"><stop stop-color="#22d3ee"/><stop offset=".55" stop-color="#a78bfa"/><stop offset="1" stop-color="#34d399"/></linearGradient>
  </defs>
  <rect width="980" height="980" rx="44" fill="#f8fafc"/>
  <rect x="164" y="238" width="652" height="456" rx="54" fill="#e2e8f0"/>
  <ellipse cx="494" cy="466" rx="270" ry="270" fill="#ffffff" fill-opacity=".65" stroke="#cbd5e1" stroke-width="5"/>
  <path d="M510 238C628 313 697 398 739 521C657 577 556 612 432 622C390 498 411 368 510 238Z" fill="#22d3ee" fill-opacity=".11"/>
  <path d="M402 326C520 284 640 302 732 381" stroke="#38bdf8" stroke-width="5" stroke-linecap="round" stroke-dasharray="8 20"/>
  <path d="M360 572C501 511 625 510 744 569" stroke="#a78bfa" stroke-width="5" stroke-linecap="round" stroke-dasharray="8 20"/>
  <g>
    <path d="M485 457L304 246C292 232 298 211 315 206L331 201C341 198 353 201 361 209L515 431L485 457Z" fill="url(#case)"/>
    <path d="M508 434L682 224C695 209 719 215 724 234L728 249C731 260 728 271 720 279L530 464L508 434Z" fill="url(#case)"/>
    <path d="M520 469L690 689C702 704 694 726 676 731L660 735C650 738 639 734 632 726L493 494L520 469Z" fill="url(#case)"/>
    <path d="M491 485L309 694C296 709 273 703 268 684L264 668C261 657 264 647 272 639L521 453L491 485Z" fill="url(#case)"/>
    <path d="M332 220L512 438" stroke="url(#beam)" stroke-width="8" stroke-linecap="round"/>
    <path d="M522 457L706 245" stroke="url(#beam)" stroke-width="8" stroke-linecap="round"/>
    <path d="M503 492L670 716" stroke="url(#beam)" stroke-width="8" stroke-linecap="round"/>
    <path d="M286 669L505 468" stroke="url(#beam)" stroke-width="8" stroke-linecap="round"/>
    <ellipse cx="506" cy="461" rx="74" ry="80" fill="#020617" stroke="#475569" stroke-width="11"/>
    <path d="M571 445H658C694 445 724 475 724 511V535C724 571 694 601 658 601H575" stroke="#111827" stroke-width="22" stroke-linecap="round"/>
    <path d="M724 535H795" stroke="#111827" stroke-width="18" stroke-linecap="round"/>
    <path d="M604 601L604 760" stroke="#111827" stroke-width="20" stroke-linecap="round"/>
    <path d="M535 842L604 758L690 842" stroke="#111827" stroke-width="20" stroke-linecap="round" stroke-linejoin="round"/>
    <path d="M486 842H742" stroke="#111827" stroke-width="20" stroke-linecap="round"/>
  </g>
</svg>
