<svg width="1200" height="860" viewBox="0 0 1200 860" fill="none" xmlns="http://www.w3.org/2000/svg">
  <defs>
    <radialGradient id="bg" cx="50%" cy="40%" r="70%"><stop stop-color="#1e1b4b"/><stop offset=".55" stop-color="#111827"/><stop offset="1" stop-color="#020617"/></radialGradient>
    <linearGradient id="led" x1="300" y1="180" x2="900" y2="680"><stop stop-color="#22d3ee"/><stop offset=".45" stop-color="#fb7185"/><stop offset="1" stop-color="#34d399"/></linearGradient>
  </defs>
  <rect width="1200" height="860" rx="48" fill="url(#bg)"/>
  <rect x="88" y="648" width="1024" height="118" rx="34" fill="#111827"/>
  <rect x="160" y="686" width="254" height="22" rx="11" fill="#38bdf8"/>
  <rect x="160" y="724" width="406" height="16" rx="8" fill="#64748b"/>
  <path d="M190 618C272 493 387 431 535 432C478 528 390 595 271 633C241 636 214 631 190 618Z" fill="#22d3ee" fill-opacity=".1"/>
  <path d="M1010 618C928 493 813 431 665 432C722 528 810 595 929 633C959 636 986 631 1010 618Z" fill="#fb7185" fill-opacity=".1"/>
  <circle cx="600" cy="380" r="240" fill="#38bdf8" fill-opacity=".07"/>
  <path d="M414 324C525 244 684 246 790 332" stroke="#67e8f9" stroke-width="7" stroke-linecap="round" stroke-dasharray="10 26"/>
  <path d="M390 458C512 386 687 390 812 470" stroke="#c4b5fd" stroke-width="7" stroke-linecap="round" stroke-dasharray="10 26"/>
  <path d="M598 174C683 276 732 393 746 524" stroke="#86efac" stroke-width="7" stroke-linecap="round" stroke-dasharray="10 26"/>
  <path d="M593 366L344 168M608 361L858 166M616 383L860 588M588 390L338 590" stroke="#020617" stroke-width="24" stroke-linecap="round"/>
  <path d="M352 170L594 364M852 170L609 363M856 586L617 386M344 588L588 388" stroke="url(#led)" stroke-width="7" stroke-linecap="round"/>
  <circle cx="602" cy="374" r="70" fill="#020617" stroke="#475569" stroke-width="10"/>
  <circle cx="602" cy="374" r="24" fill="#94a3b8"/>
  <path d="M602 446V604" stroke="#020617" stroke-width="23" stroke-linecap="round"/>
  <path d="M526 714L602 602L680 714" stroke="#020617" stroke-width="22" stroke-linecap="round" stroke-linejoin="round"/>
  <path d="M468 714H736" stroke="#020617" stroke-width="22" stroke-linecap="round"/>
  <circle cx="280" cy="232" r="5" fill="#f8fafc"/>
  <circle cx="942" cy="258" r="5" fill="#f8fafc"/>
  <circle cx="850" cy="122" r="4" fill="#a78bfa"/>
  <circle cx="412" cy="126" r="4" fill="#34d399"/>
</svg>
